<?xml version="1.0" encoding="iso-8859-1"?>
<!-- Uploaded to: SVG Repo, www.svgrepo.com, Generator: SVG Repo Mixer Tools -->
<svg fill="#49866B" height="800px" width="800px" version="1.1" id="Layer_1" xmlns="http://www.w3.org/2000/svg" xmlns:xlink="http://www.w3.org/1999/xlink" 
	 viewBox="0 0 300.019 300.019" xml:space="preserve">
<g>
	<g>
		<g>
			<path d="M150.006,0C67.156,0,0,67.169,0,150.006s67.156,150.012,150.006,150.012s150.013-67.175,150.013-150.012
				S232.856,0,150.006,0z M150.006,287.519c-75.819,0-137.506-61.694-137.506-137.512C12.5,74.181,74.188,12.5,150.006,12.5
				s137.513,61.681,137.513,137.506C287.519,225.825,225.825,287.519,150.006,287.519z"/>
			<path d="M250.688,200.644c-2.975-1.713-6.813-0.694-8.531,2.306c-10.156,17.637-25.05,31.931-43.081,41.331
				c-3.05,1.6-4.238,5.375-2.65,8.437c1.125,2.138,3.3,3.356,5.556,3.356c0.981,0,1.969-0.231,2.894-0.706
				c20.125-10.512,36.769-26.481,48.106-46.181C254.719,206.2,253.681,202.375,250.688,200.644z"/>
			<path d="M150.006,43.75c3.456,0,6.25-2.794,6.25-6.25s-2.794-6.25-6.25-6.25C84.512,31.25,31.25,84.519,31.25,150.006
				c0,3.456,2.787,6.25,6.25,6.25c3.45,0,6.25-2.794,6.25-6.25C43.75,91.413,91.412,43.75,150.006,43.75z"/>
			<path d="M231.256,150.006c0-44.8-36.45-81.25-81.25-81.25s-81.25,36.45-81.25,81.25s36.45,81.25,81.25,81.25
				S231.256,194.806,231.256,150.006z M150.006,218.756c-37.9,0-68.75-30.844-68.75-68.75s30.85-68.75,68.75-68.75
				c37.912,0,68.75,30.837,68.75,68.75C218.756,187.906,187.925,218.756,150.006,218.756z"/>
		</g>
	</g>
</g>
</svg>