<svg xmlns="http://www.w3.org/2000/svg" width="32" height="32" viewBox="0 0 24 22" fill="#49866B" stroke="none">
  <rect x="2" y="2" width="20" height="17.3" rx="4" fill="none" stroke="#49866B" stroke-width="2"/>
  
  <g transform="translate(0.5, -0.5)">
    <rect x="4" y="4.5" width="3" height="3" rx="0.5"/>
    <rect x="8" y="4.5" width="3" height="3" rx="0.5"/>
    <rect x="12" y="4.5" width="3" height="3" rx="0.5"/>
    <rect x="16" y="4.5" width="3" height="3" rx="0.5"/>
    
    <rect x="4" y="8" width="3" height="3" rx="0.5"/>
    <rect x="8" y="8" width="3" height="3" rx="0.5"/>
    <rect x="12" y="8" width="3" height="3" rx="0.5"/>
    <rect x="16" y="8" width="3" height="3" rx="0.5"/>
    
    <rect x="4" y="12" width="15" height="2" rx="0.5"/>
    
    <circle cx="5.5" cy="16.5" r="1.5"/>
    <circle cx="9.5" cy="16.5" r="1.5"/>
    <circle cx="13.5" cy="16.5" r="1.5"/>
    <circle cx="17.5" cy="16.5" r="1.5"/>
  </g>
</svg>
