<svg fill="#49866B" height="200px" width="200px" version="1.1" id="Capa_1" xmlns="http://www.w3.org/2000/svg" xmlns:xlink="http://www.w3.org/1999/xlink" viewBox="0 0 512 512" xml:space="preserve"><g id="SVGRepo_bgCarrier" stroke-width="0"></g><g id="SVGRepo_tracerCarrier" stroke-linecap="round" stroke-linejoin="round"></g><g id="SVGRepo_iconCarrier"> <g> <g> <path d="M457.147,134.723c-2.211-6.938-6.974-12.59-13.411-15.916l-51.049-26.374c-11.569-5.978-25.484-2.812-33.459,6.846 l-79.735-41.193h7.879c4.2,0,7.604-3.404,7.604-7.604V7.604c0-4.2-3.404-7.604-7.604-7.604H182.948 c-4.2,0-7.604,3.404-7.604,7.604v42.878c0,4.2,3.404,7.604,7.604,7.604h30.054v43.193h-30.054c-4.2,0-7.604,3.404-7.604,7.604 v22.541c0,4.2,3.404,7.604,7.604,7.604s7.604-3.404,7.604-7.604v-14.937h30.054H249.9h29.868v102.337h-27.142H217.88h-27.327 v-30.25c0-4.2-3.404-7.604-7.604-7.604c-4.2,0-7.604,3.404-7.604,7.604v36.68L54.188,501.34c-1.032,2.351-0.807,5.064,0.597,7.214 c1.404,2.149,3.799,3.446,6.366,3.446h34.746c3.018,0,5.751-1.785,6.963-4.548l107.414-244.773v241.717 c0,4.2,3.404,7.604,7.604,7.604h34.746c4.2,0,7.604-3.404,7.604-7.604V262.679l107.414,244.773 c1.213,2.764,3.946,4.548,6.963,4.548h34.746c2.567,0,4.963-1.296,6.366-3.445c1.403-2.149,1.628-4.862,0.597-7.214 L294.975,224.832V108.883c0-4.2-3.404-7.604-7.604-7.604h-29.868V63.843l94.744,48.947c-3.261,12.092,2.209,25.273,13.778,31.249 l51.051,26.374c3.897,2.013,8.134,3.033,12.413,3.033c2.786,0,5.59-0.434,8.328-1.306c6.938-2.211,12.59-6.974,15.916-13.411 l1.687-3.266C458.745,149.027,459.36,141.662,457.147,134.723z M90.929,496.792H72.791l115.307-262.76h18.138L90.929,496.792z M245.021,496.792h-19.538v-262.76h19.538V496.792z M397.712,496.792h-18.138l-115.308-262.76h18.139L397.712,496.792z M242.296,101.279h-14.087V58.086h14.087V101.279z M249.899,42.878h-29.294H190.55v-27.67h0.001h89.216v27.67H249.899z M441.909,148.484l-1.687,3.266c-1.461,2.828-3.955,4.923-7.024,5.902c-3.066,0.977-6.314,0.712-9.142-0.749l-51.051-26.374 c-5.877-3.036-8.188-10.289-5.152-16.166l1.687-3.266c1.461-2.828,3.955-4.923,7.024-5.902c1.215-0.387,2.459-0.579,3.692-0.579 c1.882,0,3.742,0.446,5.451,1.329l51.05,26.374c2.828,1.461,4.923,3.955,5.902,7.024 C443.636,142.409,443.369,145.656,441.909,148.484z"></path> </g> </g> </g></svg>